Coordinates
version=1
nRows=15
nColumns=27
inDegrees=yes

Units are S.I. units (second, meters, Newtons, ...)
If the header above contains a line with 'inDegrees', this indicates whether rotational values are in degrees (yes) or radians (no).

endheader
time	pelvis_rotation	pelvis_tilt	pelvis_list	pelvis_tx	pelvis_ty	pelvis_tz	hip_flexion_r	hip_adduction_r	hip_rotation_r	knee_angle_r	knee_rotation_r	knee_adduction_r	knee_angle_r_beta	ankle_angle_r	subtalar_angle_r	mtp_angle_r	hip_flexion_l	hip_adduction_l	hip_rotation_l	knee_angle_l	knee_rotation_l	knee_adduction_l	knee_angle_l_beta	ankle_angle_l	subtalar_angle_l	mtp_angle_l
      2.29500000	     -0.15917953	    -23.12220865	     -0.36186835	      0.03885200	      0.83223309	     -1.18608952	     37.54179799	    -25.99991416	    -31.74236957	     22.90490291	     -0.15158439	     -1.53204233	      0.39976597	     -2.22637167	     15.62721608	      0.00000000	     39.52653971	    -23.73711376	    -17.44362129	     20.32987122	     -1.84355554	      4.38250108	      0.35482319	     -3.74740663	     20.15334917	      0.00000000
      2.30000000	      1.73211347	    -23.66435591	     -1.40037798	      0.03857752	      0.83189693	     -1.18549039	     36.48540033	    -25.69144447	    -35.09691842	     22.62788097	      0.02945965	     -0.88040284	      0.39493103	     -2.41712736	     15.36238927	      0.00000000	     41.94660933	    -24.09124786	    -13.94312499	     21.33314989	     -1.84525329	      5.01347353	      0.37233371	     -3.47415086	     20.67732481	      0.00000000
      2.30500000	      1.74228167	    -24.20671824	     -1.09198966	      0.03700638	      0.83110313	     -1.18590623	     37.68821562	    -26.21769552	    -34.60022747	     23.46457209	     -0.03415607	     -0.83965756	      0.40953404	     -2.20003296	     15.33462321	      0.00000000	     42.79951729	    -23.87669471	    -13.95454402	     21.80232487	     -1.83939438	      4.89480348	      0.38052235	     -3.36639002	     20.53407055	      0.00000000
      2.31000000	      1.69278526	    -24.79269138	     -0.90281706	      0.03536110	      0.83024702	     -1.18619901	     38.93184597	    -26.59197935	    -34.04573450	     24.25591860	     -0.09195957	     -0.82583755	      0.42334564	     -2.01357499	     15.22742701	      0.00000000	     43.74237530	    -23.82783431	    -13.94825725	     22.34358217	     -1.77344113	      4.74129830	      0.38996908	     -3.21017276	     20.38719322	      0.00000000
      2.31500000	      1.61088560	    -25.38287428	     -0.66441607	      0.03367377	      0.82931228	     -1.18649931	     40.25428198	    -27.00456481	    -33.38184508	     25.09856224	     -0.14626030	     -0.82150095	      0.43805255	     -1.81625241	     15.12862972	      0.00000000	     44.66709539	    -23.75738760	    -14.04724263	     22.89405303	     -1.73244718	      4.56193974	      0.39957660	     -3.04899364	     20.23761684	      0.00000000
      2.32000000	     -0.13868774	    -26.54382984	      1.25511304	      0.02948269	      0.82747579	     -1.18811388	     44.82207933	    -28.42817581	    -28.13682102	     27.33151804	     -0.22585587	     -1.78173225	      0.47702498	     -1.26252707	     15.26774512	      0.00000000	     44.78053032	    -22.87218368	    -17.30510591	     23.14987879	     -1.76426698	      4.03239670	      0.40404161	     -2.96710791	     19.64863674	      0.00000000
      2.32500000	      0.46996671	    -26.95175459	      0.77311678	      0.02869736	      0.82668840	     -1.18784810	     44.93804314	    -28.38456763	    -29.36148629	     27.66345904	     -0.30540802	     -1.39454531	      0.48281844	     -1.25554130	     15.18473902	      0.00000000	     46.16299567	    -23.20441657	    -16.02094073	     23.92121819	     -1.73471655	      4.18909660	      0.41750402	     -2.74675779	     19.97355738	      0.00000000
      2.33000000	      0.49314628	    -27.27157498	      1.13747113	      0.02750244	      0.82560969	     -1.18818430	     45.93468767	    -28.91098085	    -28.71569100	     28.46502475	     -0.22190676	     -1.30514059	      0.49680840	     -1.00418805	     15.04065034	      0.00000000	     46.74811951	    -23.05389698	    -16.32352289	     24.41057677	     -1.69967943	      3.83581208	      0.42604494	     -2.64045801	     19.79176082	      0.00000000
      2.33500000	      1.53497287	    -27.94152180	      0.74487475	      0.02621009	      0.82449454	     -1.18804456	     46.16182142	    -29.19147663	    -30.23353350	     28.95719764	     -0.15315623	     -0.88868784	      0.50539844	     -0.84401301	     14.83150035	      0.00000000	     48.73450990	    -23.10761788	    -14.41857877	     25.36483516	     -1.62090459	      3.87342917	      0.44269989	     -2.39572060	     19.66296641	      0.00000000
      2.34000000	      1.60523356	    -28.53393147	      0.90545594	      0.02438972	      0.82310707	     -1.18820347	     47.43662293	    -29.56872317	    -29.69338794	     29.83429884	     -0.12539904	     -0.84624379	      0.52070674	     -0.64525846	     14.67078723	      0.00000000	     49.88927860	    -23.11311826	    -14.25903761	     26.12401413	     -1.56401021	      3.65013746	      0.45595006	     -2.17997207	     19.51520992	      0.00000000
      2.34500000	      0.57856374	    -29.10537900	      2.25889414	      0.02186313	      0.82123855	     -1.18914398	     50.43768096	    -30.48993859	    -26.12436725	     31.43033300	     -0.03962300	     -1.33689973	      0.54856280	     -0.28066441	     14.68322446	      0.00000000	     49.87360256	    -22.66138196	    -16.62837846	     26.50292921	     -1.62835999	      3.14299125	      0.46256338	     -2.04026957	     19.31909743	      0.00000000
      2.35000000	      1.90752314	    -31.11089742	      2.27864272	      0.01778644	      0.81903964	     -1.18928966	     52.73889965	    -31.28285164	    -26.67132740	     32.66108006	      0.07691688	     -1.49231273	      0.57004338	      0.01181814	     14.65329894	      0.00000000	     53.68254379	    -22.27542332	    -13.88411161	     27.92373727	     -1.46281241	      3.75585566	      0.48736115	     -1.85201240	     18.89139308	      0.00000000
      2.35500000	      1.55309713	    -29.80252782	      2.00274690	      0.01979480	      0.81853706	     -1.18903625	     51.29019244	    -31.12346889	    -27.23557082	     32.67741511	      0.06524676	     -0.59585733	      0.57032848	      0.07791635	     14.21921262	      0.00000000	     52.24590410	    -22.83209583	    -15.12327445	     28.08972226	     -1.50634409	      2.55703731	      0.49025814	     -1.56737247	     18.95790253	      0.00000000
      2.36000000	      1.42654970	    -30.13413788	      2.24549737	      0.01836505	      0.81690770	     -1.18912958	     52.48435480	    -31.45572303	    -26.38298438	     33.57010661	      0.12010047	     -0.48196346	      0.58590889	      0.30240503	     13.99497546	      0.00000000	     52.93691506	    -22.92660155	    -15.46771402	     28.78694567	     -1.45600903	      2.14427699	      0.50242698	     -1.33297191	     18.79019735	      0.00000000
      2.36500000	      0.61036390	    -30.36261506	      3.04021905	      0.01674869	      0.81506760	     -1.18949927	     54.50667182	    -31.85273568	    -23.83051692	     34.72514783	      0.23322490	     -0.63215473	      0.60606816	      0.53386820	     13.79730165	      0.00000000	     52.85907399	    -22.96170832	    -17.30950639	     29.30499190	     -1.45166788	      1.47329377	      0.51146860	     -1.10602638	     18.60856268	      0.00000000
